{"title":"​House Of Cards S03 Season 3 1080p 51Ch BluRay ReEnc-DeeJayAhmed","uid":13308920,"size":9174531166,"categoryP":"video","categoryS":"hd___tv_shows","magnet":"?xt=urn:btih:42f597f946ecf04fcab6214303cdc5601c3a9018&amp;dn=%E2%80%8BHouse+Of+Cards+S03+Season+3+1080p+51Ch+BluRay+ReEnc-DeeJayAhmed&amp;tr=udp%3A%2F%2Ftracker.leechers-paradise.org%3A6969&amp;tr=udp%3A%2F%2Fzer0day.ch%3A1337&amp;tr=udp%3A%2F%2Fopen.demonii.com%3A1337&amp;tr=udp%3A%2F%2Ftracker.coppersurfer.tk%3A6969&amp;tr=udp%3A%2F%2Fexodus.desync.com%3A6969","seeders":5,"leechers":6,"uploader":"DeeJayPirate","files":28,"time":1453762886,"description":"DeeJayAhmed  \nhttps://www.DeeJayAhmed.com\r\r\nKeep Seeding!!=)) \r\nDo Comment On The A/V Quality Considering The Size Of The File..!\r\nHelp Me By Donating Bitcoins : 14i1UCWye2SCjoAHR5u6LDswWgAy55dxAv\r\n\r\nVideo \r\nID : 1 \r\nFormat : AVC \r\nFormat/Info : Advanced Video Codec \r\nFormat profile :    \r\nFormat settings, CABAC : Yes \r\nFormat settings, ReFrames : 4 frames \r\nCodec ID : V_MPEG4/ISO/AVC \r\nDuration : 58mn 27s \r\nBit rate : 1 576 Kbps \r\nWidth : 1 920 pixels \r\nHeight : 960 pixels \r\nDisplay aspect ratio : 2.000 \r\nFrame rate mode : Constant \r\nFrame rate : 23.976 (24000/1001) fps \r\nColor space : YUV \r\nChroma subsampling : 4:2:0 \r\nBit depth : 8 bits \r\nScan type : Progressive \r\nBits/(Pixel*Frame) : 0.036 \r\nStream size : 659 MiB (88%) \r\nDefault : Yes \r\nForced : No \r\n\r\nAudio \r\nID : 2 \r\nFormat : AAC \r\nFormat/Info : Advanced Audio Codec \r\nFormat profile : HE-AAC / LC \r\nCodec ID : A_AAC \r\nDuration : 58mn 27s \r\nBit rate : 219 Kbps \r\nChannel(s) : 6 channels \r\nChannel positions : Front: L C R, Side: L R, LFE \r\nSampling rate : 48.0 KHz / 24.0 KHz \r\nFrame rate : 23.438 fps (1024 spf) \r\nCompression mode : Lossy \r\nDelay relative to video : 31ms \r\nStream size : 91.6 MiB (12%) \r\nLanguage : English \r\nDefault : Yes \r\nForced : No","torrent":{"xt":"urn:btih:42f597f946ecf04fcab6214303cdc5601c3a9018","amp;dn":"%E2%80%8BHouse+Of+Cards+S03+Season+3+1080p+51Ch+BluRay+ReEnc-DeeJayAhmed","amp;tr":["udp%3A%2F%2Ftracker.leechers-paradise.org%3A6969","udp%3A%2F%2Fzer0day.ch%3A1337","udp%3A%2F%2Fopen.demonii.com%3A1337","udp%3A%2F%2Ftracker.coppersurfer.tk%3A6969","udp%3A%2F%2Fexodus.desync.com%3A6969"],"infoHash":"42f597f946ecf04fcab6214303cdc5601c3a9018","infoHashBuffer":{"type":"Buffer","data":[66,245,151,249,70,236,240,79,202,182,33,67,3,205,197,96,28,58,144,24]},"announce":[],"urlList":[]}}